<svg width="234" height="11" viewBox="0 0 234 11" fill="none" xmlns="http://www.w3.org/2000/svg">
<g id="Frame" clip-path="url(#clip0_1_248)">
<rect id="Rectangle" x="19" y="1" width="9" height="9" fill="black"/>
<rect id="Rectangle_2" x="47" y="1" width="9" height="9" fill="black"/>
<rect id="Rectangle_3" x="75" y="1" width="9" height="9" fill="black"/>
<rect id="Rectangle_4" x="103" y="1" width="9" height="9" fill="black"/>
<rect id="Rectangle_5" x="131" y="1" width="9" height="9" fill="black"/>
<rect id="Rectangle_6" x="159" y="1" width="9" height="9" fill="black"/>
<rect id="Rectangle_7" x="187" y="1" width="9" height="9" fill="black"/>
<rect id="Rectangle_8" x="215" y="1" width="9" height="9" fill="black"/>
<rect id="Rectangle_9" x="33" y="1" width="9" height="9" fill="black"/>
<rect id="Rectangle_10" x="89" y="1" width="9" height="9" fill="black"/>
<rect id="Rectangle_11" x="145" y="1" width="9" height="9" fill="black"/>
<rect id="Rectangle_12" x="201" y="1" width="9" height="9" fill="black"/>
<rect id="Rectangle_13" x="61" y="1" width="9" height="9" fill="black"/>
<rect id="Rectangle_14" x="173" y="1" width="9" height="9" fill="black"/>
<rect id="Rectangle_15" x="117" y="1" width="9" height="9" fill="black"/>
</g>
<defs>
<clipPath id="clip0_1_248">
<rect width="233" height="10" fill="white" transform="translate(0.5 0.734375)"/>
</clipPath>
</defs>
</svg>
